<svg width="24" height="24" viewBox="0 0 24 24" fill="none" xmlns="http://www.w3.org/2000/svg">
<mask id="mask0_6_992" style="mask-type:alpha" maskUnits="userSpaceOnUse" x="0" y="0" width="24" height="24">
<rect width="24" height="24" fill="#D9D9D9"/>
</mask>
<g mask="url(#mask0_6_992)">
</g>
<g clip-path="url(#clip0_6_992)">
<path d="M12 2C10.0222 2 8.08879 2.58649 6.4443 3.6853C4.79981 4.78412 3.51809 6.3459 2.76121 8.17317C2.00433 10.0004 1.8063 12.0111 2.19215 13.9509C2.578 15.8907 3.53041 17.6725 4.92894 19.0711C6.32746 20.4696 8.10929 21.422 10.0491 21.8079C11.9889 22.1937 13.9996 21.9957 15.8268 21.2388C17.6541 20.4819 19.2159 19.2002 20.3147 17.5557C21.4135 15.9112 22 13.9778 22 12C21.9971 9.34872 20.9426 6.80684 19.0679 4.9321C17.1932 3.05736 14.6513 2.00287 12 2ZM12 20.3333C10.3518 20.3333 8.74066 19.8446 7.37025 18.9289C5.99984 18.0132 4.93174 16.7117 4.30101 15.189C3.67028 13.6663 3.50525 11.9908 3.82679 10.3742C4.14834 8.75774 4.94201 7.27288 6.10745 6.10744C7.27289 4.94201 8.75774 4.14833 10.3743 3.82679C11.9908 3.50525 13.6663 3.67027 15.189 4.301C16.7118 4.93173 18.0132 5.99984 18.9289 7.37025C19.8446 8.74066 20.3333 10.3518 20.3333 12C20.3309 14.2094 19.4522 16.3276 17.8899 17.8899C16.3276 19.4522 14.2094 20.3309 12 20.3333ZM16.1667 12C16.1667 12.221 16.0789 12.433 15.9226 12.5893C15.7663 12.7455 15.5544 12.8333 15.3333 12.8333H12.8333V15.3333C12.8333 15.5543 12.7455 15.7663 12.5893 15.9226C12.433 16.0789 12.221 16.1667 12 16.1667C11.779 16.1667 11.567 16.0789 11.4107 15.9226C11.2545 15.7663 11.1667 15.5543 11.1667 15.3333V12.8333H8.66667C8.44566 12.8333 8.2337 12.7455 8.07742 12.5893C7.92113 12.433 7.83334 12.221 7.83334 12C7.83334 11.779 7.92113 11.567 8.07742 11.4107C8.2337 11.2545 8.44566 11.1667 8.66667 11.1667H11.1667V8.66667C11.1667 8.44565 11.2545 8.23369 11.4107 8.07741C11.567 7.92113 11.779 7.83333 12 7.83333C12.221 7.83333 12.433 7.92113 12.5893 8.07741C12.7455 8.23369 12.8333 8.44565 12.8333 8.66667V11.1667H15.3333C15.5544 11.1667 15.7663 11.2545 15.9226 11.4107C16.0789 11.567 16.1667 11.779 16.1667 12Z" fill="#1C1C1C"/>
</g>
<defs>
<clipPath id="clip0_6_992">
<rect width="20" height="20" fill="white" transform="translate(2 2)"/>
</clipPath>
</defs>
</svg>
