<svg width="18" height="20" viewBox="0 0 18 20" fill="none" xmlns="http://www.w3.org/2000/svg">
<path d="M16.5091 3.33333H13.9215C13.7278 2.39284 13.2152 1.54779 12.4702 0.940598C11.7251 0.333408 10.7932 0.0012121 9.83145 0L8.16203 0C7.20028 0.0012121 6.26835 0.333408 5.52331 0.940598C4.77828 1.54779 4.2657 2.39284 4.07196 3.33333H1.48437C1.26299 3.33333 1.05068 3.42113 0.894139 3.57741C0.7376 3.73369 0.649658 3.94565 0.649658 4.16667C0.649658 4.38768 0.7376 4.59964 0.894139 4.75592C1.05068 4.9122 1.26299 5 1.48437 5H2.31907V15.8333C2.3204 16.938 2.76054 17.997 3.54294 18.7782C4.32534 19.5593 5.38613 19.9987 6.49262 20H11.5009C12.6074 19.9987 13.6681 19.5593 14.4505 18.7782C15.2329 17.997 15.6731 16.938 15.6744 15.8333V5H16.5091C16.7305 5 16.9428 4.9122 17.0993 4.75592C17.2559 4.59964 17.3438 4.38768 17.3438 4.16667C17.3438 3.94565 17.2559 3.73369 17.0993 3.57741C16.9428 3.42113 16.7305 3.33333 16.5091 3.33333ZM8.16203 1.66667H9.83145C10.3492 1.6673 10.8541 1.82781 11.2768 2.1262C11.6996 2.42459 12.0196 2.84624 12.1928 3.33333H5.80064C5.97391 2.84624 6.29387 2.42459 6.71664 2.1262C7.13941 1.82781 7.64429 1.6673 8.16203 1.66667ZM14.005 15.8333C14.005 16.4964 13.7412 17.1323 13.2716 17.6011C12.8019 18.0699 12.165 18.3333 11.5009 18.3333H6.49262C5.82848 18.3333 5.19155 18.0699 4.72193 17.6011C4.25232 17.1323 3.98849 16.4964 3.98849 15.8333V5H14.005V15.8333Z" fill="#1C1C1C"/>
<path d="M7.32616 14.9997C7.54754 14.9997 7.75985 14.9119 7.91639 14.7556C8.07293 14.5993 8.16087 14.3874 8.16087 14.1663V9.16634C8.16087 8.94533 8.07293 8.73337 7.91639 8.57709C7.75985 8.42081 7.54754 8.33301 7.32616 8.33301C7.10479 8.33301 6.89247 8.42081 6.73594 8.57709C6.5794 8.73337 6.49146 8.94533 6.49146 9.16634V14.1663C6.49146 14.3874 6.5794 14.5993 6.73594 14.7556C6.89247 14.9119 7.10479 14.9997 7.32616 14.9997Z" fill="#1C1C1C"/>
<path d="M10.667 14.9997C10.8884 14.9997 11.1007 14.9119 11.2572 14.7556C11.4137 14.5993 11.5017 14.3874 11.5017 14.1663V9.16634C11.5017 8.94533 11.4137 8.73337 11.2572 8.57709C11.1007 8.42081 10.8884 8.33301 10.667 8.33301C10.4456 8.33301 10.2333 8.42081 10.0768 8.57709C9.92022 8.73337 9.83228 8.94533 9.83228 9.16634V14.1663C9.83228 14.3874 9.92022 14.5993 10.0768 14.7556C10.2333 14.9119 10.4456 14.9997 10.667 14.9997Z" fill="#1C1C1C"/>
</svg>
