<svg width="24" height="24" viewBox="0 0 24 24" fill="none" xmlns="http://www.w3.org/2000/svg">
<mask id="mask0_6_935" style="mask-type:alpha" maskUnits="userSpaceOnUse" x="0" y="0" width="24" height="24">
<rect width="24" height="24" fill="#D9D9D9"/>
</mask>
<g mask="url(#mask0_6_935)">
</g>
<g clip-path="url(#clip0_6_935)">
<path d="M16.992 3.69749L7.84802 12.8415C7.49877 13.1889 7.2219 13.602 7.03343 14.0571C6.84495 14.5122 6.74862 15.0002 6.75001 15.4927V16.5C6.75001 16.6989 6.82903 16.8897 6.96968 17.0303C7.11034 17.171 7.3011 17.25 7.50001 17.25H8.50726C8.99984 17.2514 9.48779 17.1551 9.94288 16.9666C10.398 16.7781 10.8112 16.5012 11.1585 16.152L20.3025 7.00799C20.7408 6.56862 20.987 5.97335 20.987 5.35274C20.987 4.73214 20.7408 4.13687 20.3025 3.69749C19.8568 3.27141 19.2639 3.03363 18.6473 3.03363C18.0306 3.03363 17.4378 3.27141 16.992 3.69749ZM19.242 5.94749L10.098 15.0915C9.67511 15.5118 9.10352 15.7484 8.50726 15.75H8.25001V15.4927C8.25158 14.8965 8.48819 14.3249 8.90851 13.902L18.0525 4.75799C18.2127 4.60496 18.4257 4.51956 18.6473 4.51956C18.8688 4.51956 19.0818 4.60496 19.242 4.75799C19.3995 4.91588 19.4879 5.12976 19.4879 5.35274C19.4879 5.57572 19.3995 5.78961 19.242 5.94749Z" fill="#882EFD"/>
<path d="M20.25 9.73425C20.0511 9.73425 19.8603 9.81327 19.7197 9.95392C19.579 10.0946 19.5 10.2853 19.5 10.4843V14.25H16.5C15.9033 14.25 15.331 14.4871 14.909 14.909C14.4871 15.331 14.25 15.9033 14.25 16.5V19.5H6.75C6.15326 19.5 5.58097 19.2629 5.15901 18.841C4.73705 18.419 4.5 17.8467 4.5 17.25V6.75C4.5 6.15326 4.73705 5.58097 5.15901 5.15901C5.58097 4.73705 6.15326 4.5 6.75 4.5H13.5315C13.7304 4.5 13.9212 4.42098 14.0618 4.28033C14.2025 4.13968 14.2815 3.94891 14.2815 3.75C14.2815 3.55109 14.2025 3.36032 14.0618 3.21967C13.9212 3.07902 13.7304 3 13.5315 3H6.75C5.7558 3.00119 4.80267 3.39666 4.09967 4.09967C3.39666 4.80267 3.00119 5.7558 3 6.75L3 17.25C3.00119 18.2442 3.39666 19.1973 4.09967 19.9003C4.80267 20.6033 5.7558 20.9988 6.75 21H15.2573C15.7499 21.0014 16.238 20.9051 16.6932 20.7166C17.1484 20.5281 17.5618 20.2513 17.9093 19.902L19.9013 17.9085C20.2506 17.5612 20.5275 17.148 20.7161 16.6929C20.9047 16.2378 21.0012 15.7499 21 15.2573V10.4843C21 10.2853 20.921 10.0946 20.7803 9.95392C20.6397 9.81327 20.4489 9.73425 20.25 9.73425ZM16.8488 18.8415C16.5473 19.1423 16.166 19.3505 15.75 19.4415V16.5C15.75 16.3011 15.829 16.1103 15.9697 15.9697C16.1103 15.829 16.3011 15.75 16.5 15.75H19.4438C19.351 16.1651 19.143 16.5457 18.8438 16.848L16.8488 18.8415Z" fill="#882EFD"/>
</g>
<defs>
<clipPath id="clip0_6_935">
<rect width="18" height="18" fill="white" transform="translate(3 3)"/>
</clipPath>
</defs>
</svg>
