<svg width="24" height="24" viewBox="0 0 24 24" fill="none" xmlns="http://www.w3.org/2000/svg">
<mask id="mask0_6_955" style="mask-type:alpha" maskUnits="userSpaceOnUse" x="0" y="0" width="24" height="24">
<rect width="24" height="24" fill="#D9D9D9"/>
</mask>
<g mask="url(#mask0_6_955)">
</g>
<g clip-path="url(#clip0_6_955)">
<path d="M20.5605 15.0675C20.5605 15.0675 14.01 12.09 13.9867 12.0825C13.4408 11.8965 12.8483 12.0337 12.4403 12.4417C12.0322 12.8497 11.895 13.4422 12.1088 14.055L15.0668 20.5612C15.186 20.8245 15.4463 20.9955 15.7358 21.0007H15.75C16.0335 21.0007 16.2938 20.8402 16.4213 20.586L17.8095 17.8095L20.586 16.4212C20.8447 16.2915 21.006 16.026 21.0007 15.7365C20.9955 15.4477 20.8245 15.1875 20.5613 15.0675H20.5605ZM16.9147 16.5795C16.77 16.6522 16.6515 16.77 16.5795 16.9147L15.7815 18.5107L13.4985 13.5037L18.5093 15.7822L16.9155 16.5787L16.9147 16.5795ZM12.684 19.47C12.555 19.4812 12.4253 19.4895 12.294 19.4947C11.793 18.999 10.4865 17.6062 9.576 15.7507H10.125C10.539 15.7507 10.875 15.4155 10.875 15.0007C10.875 14.586 10.539 14.2507 10.125 14.2507H8.9775C8.75925 13.5367 8.625 12.7807 8.625 12.0007C8.625 11.2207 8.76 10.4655 8.979 9.75075H15.0217C15.1102 10.041 15.1852 10.338 15.243 10.641C15.321 11.0482 15.7148 11.3167 16.1198 11.2372C16.5262 11.16 16.7933 10.767 16.716 10.3605C16.677 10.1542 16.6305 9.951 16.5787 9.75075H19.1235C19.1332 9.75075 19.1437 9.75075 19.1535 9.75075C19.3778 10.4617 19.4985 11.2177 19.4985 12.0015C19.4985 12.2317 19.488 12.459 19.4678 12.684C19.431 13.0965 19.7348 13.461 20.1473 13.4985C20.5613 13.539 20.925 13.2315 20.9618 12.819C20.9858 12.5497 20.9985 12.2767 20.9985 12.0015C21 7.03725 16.9628 3 12 3C7.03725 3 3 7.03725 3 12C3 16.9627 7.03725 21 11.9992 21C12.2745 21 12.5468 20.9872 12.8153 20.9632C13.2277 20.9265 13.533 20.5627 13.4963 20.1495C13.4595 19.7377 13.0965 19.4332 12.6833 19.4692L12.684 19.47ZM7.419 14.2507H4.875C4.86525 14.2507 4.8555 14.2507 4.845 14.2507C4.62075 13.5397 4.5 12.7837 4.5 12C4.5 11.2162 4.62075 10.4602 4.845 9.74925C4.85475 9.74925 4.8645 9.74925 4.875 9.74925H7.419C7.23525 10.4655 7.125 11.2185 7.125 11.9992C7.125 12.78 7.2345 13.533 7.419 14.2492V14.2507ZM9.57975 8.25075C10.3455 6.693 11.391 5.45775 12.0015 4.80975C12.6128 5.457 13.6582 6.69 14.424 8.25075H9.57975ZM18.4935 8.25075H16.0725C15.4792 6.83625 14.6565 5.63475 13.9485 4.758C15.8827 5.27925 17.5103 6.55575 18.4935 8.25075ZM10.05 4.758C9.342 5.63475 8.5185 6.83625 7.926 8.25H5.5065C6.489 6.555 8.11575 5.2785 10.05 4.758ZM5.5065 15.75H7.926C8.5185 17.1645 9.342 18.3652 10.05 19.242C8.1165 18.7207 6.48975 17.4442 5.5065 15.75Z" fill="#882EFD"/>
</g>
<defs>
<clipPath id="clip0_6_955">
<rect width="18" height="18" fill="white" transform="translate(3 3)"/>
</clipPath>
</defs>
</svg>
