<svg width="40" height="40" viewBox="0 0 40 40" fill="none" xmlns="http://www.w3.org/2000/svg">
<mask id="mask0_6_2800" style="mask-type:alpha" maskUnits="userSpaceOnUse" x="0" y="0" width="40" height="40">
<rect width="40" height="40" fill="#D9D9D9"/>
</mask>
<g mask="url(#mask0_6_2800)">
<path d="M29.5109 23.4078C29.5109 23.4078 22.2328 20.0996 22.207 20.0912C21.6003 19.8846 20.942 20.0371 20.4887 20.4904C20.0354 20.9437 19.8829 21.602 20.1204 22.2828L23.4069 29.5117C23.5394 29.8042 23.8286 29.9942 24.1502 30H24.1661C24.4811 30 24.7702 29.8217 24.9119 29.5392L26.4543 26.4543L29.5392 24.9119C29.8267 24.7677 30.0058 24.4727 30 24.1511C29.9942 23.8303 29.8042 23.5411 29.5117 23.4078H29.5109ZM25.4602 25.0877C25.2994 25.1685 25.1677 25.2994 25.0877 25.4602L24.2011 27.2334L21.6645 21.6703L27.2318 24.2019L25.461 25.0869L25.4602 25.0877ZM20.7596 28.2992C20.6162 28.3117 20.4721 28.3209 20.3262 28.3267C19.7696 27.7759 18.318 26.2285 17.3064 24.1669H17.9163C18.3763 24.1669 18.7496 23.7944 18.7496 23.3336C18.7496 22.8728 18.3763 22.5003 17.9163 22.5003H16.6414C16.3989 21.707 16.2497 20.867 16.2497 20.0004C16.2497 19.1338 16.3997 18.2947 16.6431 17.5005H23.3569C23.4553 17.823 23.5386 18.153 23.6028 18.4896C23.6894 18.9421 24.1269 19.2404 24.5769 19.1521C25.0285 19.0663 25.3252 18.6296 25.2394 18.178C25.196 17.9488 25.1444 17.723 25.0869 17.5005H27.9143C27.9251 17.5005 27.9368 17.5005 27.9476 17.5005C28.1967 18.2905 28.3309 19.1305 28.3309 20.0013C28.3309 20.2571 28.3192 20.5096 28.2967 20.7596C28.2559 21.2179 28.5934 21.6228 29.0517 21.6645C29.5117 21.7095 29.9158 21.3679 29.9567 20.9095C29.9833 20.6104 29.9975 20.3071 29.9975 20.0013C29.9992 14.4856 25.5135 10 19.9996 10C14.4856 10 10 14.4856 10 19.9996C10 25.5135 14.4856 29.9992 19.9987 29.9992C20.3046 29.9992 20.6071 29.985 20.9054 29.9583C21.3637 29.9175 21.7028 29.5134 21.662 29.0542C21.6212 28.5967 21.2179 28.2584 20.7587 28.2984L20.7596 28.2992ZM14.9098 22.5003H12.0832C12.0724 22.5003 12.0616 22.5003 12.0499 22.5003C11.8008 21.7103 11.6666 20.8704 11.6666 19.9996C11.6666 19.1288 11.8008 18.2888 12.0499 17.4989C12.0607 17.4989 12.0716 17.4989 12.0832 17.4989H14.9098C14.7056 18.2947 14.5831 19.1313 14.5831 19.9987C14.5831 20.8662 14.7048 21.7028 14.9098 22.4986V22.5003ZM17.3105 15.8339C18.1613 14.1032 19.3229 12.7307 20.0012 12.0107C20.6804 12.7299 21.842 14.0998 22.6928 15.8339H17.3105ZM27.2143 15.8339H24.5244C23.8653 14.2623 22.9511 12.9274 22.1645 11.9533C24.3136 12.5324 26.1218 13.9507 27.2143 15.8339ZM17.833 11.9533C17.0464 12.9274 16.1314 14.2623 15.4731 15.8331H12.7849C13.8765 13.9498 15.6839 12.5316 17.833 11.9533ZM12.7849 24.1661H15.4731C16.1314 25.7377 17.0464 27.0718 17.833 28.0459C15.6848 27.4668 13.8773 26.0485 12.7849 24.1661Z" fill="#1C1C1C"/>
</g>
</svg>
