<svg width="16" height="16" viewBox="0 0 16 16" fill="none" xmlns="http://www.w3.org/2000/svg">
<circle cx="8" cy="8" r="8" fill="#00B656"/>
<path d="M10.7986 5.19958C10.5483 4.95387 10.2113 4.81668 9.86053 4.81774L6.81117 4.81303C6.63505 4.81355 6.46629 4.88375 6.34175 5.00829C6.21721 5.13283 6.14701 5.30159 6.14649 5.47771C6.14613 5.56572 6.1632 5.65293 6.19671 5.7343C6.23022 5.81568 6.27951 5.88962 6.34174 5.95185C6.40398 6.01408 6.47791 6.06337 6.55929 6.09689C6.64067 6.1304 6.72788 6.14747 6.81588 6.1471L8.91301 6.14239L5.19896 9.85644C5.07394 9.98146 5.0037 10.151 5.0037 10.3278C5.0037 10.5047 5.07394 10.6742 5.19896 10.7992C5.32399 10.9243 5.49356 10.9945 5.67037 10.9945C5.84718 10.9945 6.01675 10.9243 6.14177 10.7992L9.85582 7.0852L9.85582 9.18704C9.85519 9.36395 9.92487 9.53386 10.0495 9.6594C10.1742 9.78493 10.3436 9.85581 10.5205 9.85644C10.6974 9.85706 10.8673 9.78738 10.9929 9.66273C11.1184 9.53808 11.1893 9.36867 11.1899 9.19176L11.1852 6.14239C11.1862 5.78934 11.0472 5.45028 10.7986 5.19958Z" fill="white"/>
</svg>
