<svg width="24" height="24" viewBox="0 0 24 24" fill="none" xmlns="http://www.w3.org/2000/svg">
<mask id="mask0_6_835" style="mask-type:alpha" maskUnits="userSpaceOnUse" x="0" y="0" width="24" height="24">
<rect width="24" height="24" fill="#D9D9D9"/>
</mask>
<g mask="url(#mask0_6_835)">
<path d="M11.9655 4.50025C13.975 4.50685 15.8983 5.31701 17.3068 6.75017H14.9654C14.5512 6.75017 14.2154 7.08594 14.2154 7.50014C14.2154 7.91434 14.5512 8.2501 14.9654 8.2501H18.0725C18.8415 8.24968 19.4648 7.62638 19.4652 6.8574V3.75025C19.4652 3.33605 19.1295 3.00028 18.7153 3.00028C18.3011 3.00028 17.9653 3.33605 17.9653 3.75025V5.30871C14.2778 1.98771 8.59625 2.28484 5.27525 5.97237C3.9756 7.41549 3.17846 9.24085 3.00328 11.175C2.96475 11.5903 3.27021 11.9582 3.68554 11.9968C3.70803 11.9988 3.73064 11.9999 3.75328 12C4.13341 12.0049 4.45477 11.7196 4.49502 11.3415C4.84101 7.47219 8.08074 4.50534 11.9655 4.50025Z" fill="#882EFD"/>
<path d="M20.1782 12.0001C19.7981 11.9952 19.4767 12.2805 19.4365 12.6586C19.0786 16.7792 15.448 19.8296 11.3272 19.4717C9.54435 19.3168 7.87586 18.5286 6.62388 17.2499H8.96531C9.37951 17.2499 9.71528 16.9141 9.71528 16.4999C9.71528 16.0857 9.37951 15.75 8.96531 15.75H5.85816C5.08939 15.7495 4.46588 16.3724 4.46545 17.1412C4.46545 17.1416 4.46545 17.1421 4.46545 17.1427V20.2498C4.46545 20.664 4.80122 20.9998 5.21542 20.9998C5.62962 20.9998 5.96538 20.664 5.96538 20.2498V18.6914C9.65291 22.0124 15.3344 21.7152 18.6554 18.0277C19.9551 16.5846 20.7522 14.7592 20.9274 12.825C20.966 12.4097 20.6605 12.0418 20.2452 12.0033C20.2229 12.0012 20.2006 12.0001 20.1782 12.0001Z" fill="#882EFD"/>
</g>
</svg>
