<svg width="16" height="16" viewBox="0 0 16 16" fill="none" xmlns="http://www.w3.org/2000/svg">
<circle cx="8" cy="8" r="8" fill="#EA4242"/>
<path d="M10.8034 10.7992C11.0491 10.5489 11.1863 10.2118 11.1852 9.86108L11.19 6.81172C11.1894 6.63559 11.1192 6.46683 10.9947 6.3423C10.8702 6.21776 10.7014 6.14756 10.5253 6.14704C10.4373 6.14668 10.3501 6.16374 10.2687 6.19726C10.1873 6.23077 10.1134 6.28006 10.0511 6.34229C9.98891 6.40453 9.93962 6.47846 9.90611 6.55984C9.87259 6.64122 9.85552 6.72842 9.85589 6.81643L9.8606 8.91356L6.14655 5.19951C6.02153 5.07449 5.85196 5.00425 5.67515 5.00425C5.49834 5.00425 5.32877 5.07449 5.20375 5.19951C5.07872 5.32454 5.00848 5.49411 5.00848 5.67092C5.00848 5.84773 5.07872 6.0173 5.20375 6.14232L8.91779 9.85637L6.81595 9.85637C6.63904 9.85574 6.46913 9.92542 6.34359 10.0501C6.21806 10.1747 6.14718 10.3441 6.14655 10.521C6.14593 10.698 6.21561 10.8679 6.34026 10.9934C6.46491 11.1189 6.63433 11.1898 6.81123 11.1904L9.8606 11.1857C10.2137 11.1868 10.5527 11.0478 10.8034 10.7992Z" fill="white"/>
</svg>
