<svg width="24" height="24" viewBox="0 0 24 24" fill="none" xmlns="http://www.w3.org/2000/svg">
<mask id="mask0_163_267" style="mask-type:alpha" maskUnits="userSpaceOnUse" x="0" y="0" width="24" height="24">
<rect width="24" height="24" fill="#D9D9D9"/>
</mask>
<g mask="url(#mask0_163_267)">
<path d="M22.0525 20.8778L16.4769 15.3022C17.8282 13.6495 18.4926 11.5406 18.3327 9.41177C18.1727 7.28292 17.2006 5.29698 15.6175 3.86474C14.0344 2.4325 11.9613 1.66354 9.82715 1.7169C7.69297 1.77026 5.66094 2.64187 4.15137 4.15143C2.6418 5.661 1.7702 7.69303 1.71684 9.82722C1.66347 11.9614 2.43244 14.0345 3.86468 15.6176C5.29692 17.2007 7.28286 18.1728 9.41171 18.3327C11.5406 18.4927 13.6494 17.8283 15.3022 16.4769L20.8778 22.0525C21.0344 22.2038 21.2443 22.2876 21.4621 22.2857C21.6799 22.2838 21.8883 22.1964 22.0423 22.0424C22.1964 21.8884 22.2837 21.68 22.2856 21.4622C22.2875 21.2444 22.2038 21.0345 22.0525 20.8778ZM10.0484 16.6946C8.73396 16.6946 7.44901 16.3048 6.35607 15.5745C5.26312 14.8442 4.41128 13.8063 3.90825 12.5918C3.40522 11.3774 3.27361 10.0411 3.53005 8.75191C3.78649 7.46269 4.41947 6.27847 5.34894 5.349C6.27841 4.41953 7.46263 3.78655 8.75185 3.53011C10.0411 3.27367 11.3774 3.40528 12.5918 3.90831C13.8062 4.41134 14.8442 5.26318 15.5745 6.35613C16.3047 7.44907 16.6945 8.73402 16.6945 10.0485C16.6925 11.8105 15.9917 13.4998 14.7457 14.7458C13.4998 15.9918 11.8105 16.6926 10.0484 16.6946Z" fill="#1C1C1C"/>
</g>
</svg>
