<svg width="24" height="24" viewBox="0 0 24 24" fill="none" xmlns="http://www.w3.org/2000/svg">
<mask id="mask0_163_264" style="mask-type:alpha" maskUnits="userSpaceOnUse" x="0" y="0" width="24" height="24">
<rect width="24" height="24" fill="#D9D9D9"/>
</mask>
<g mask="url(#mask0_163_264)">
<path d="M15.5887 2.57141C15.3722 2.57141 15.1646 2.6574 15.0116 2.81045C14.8585 2.96351 14.7725 3.1711 14.7725 3.38755C14.7725 5.79436 12.6644 5.92666 10.6918 5.92666H4.9788C4.11298 5.92666 3.28263 6.27061 2.6704 6.88283C2.05818 7.49506 1.71423 8.32541 1.71423 9.19123L1.71423 10.8235C1.71602 11.3122 1.82805 11.7941 2.042 12.2335C2.25594 12.6728 2.56628 13.0582 2.94987 13.3609L5.86513 19.8672C6.07246 20.3333 6.41046 20.7293 6.8382 21.0072C7.26594 21.2852 7.76508 21.4332 8.2752 21.4334C8.68108 21.4331 9.08044 21.3313 9.43695 21.1373C9.79346 20.9433 10.0958 20.6632 10.3164 20.3226C10.537 19.9819 10.669 19.5914 10.7002 19.1868C10.7314 18.7821 10.6609 18.376 10.4951 18.0056L8.69959 14.0881H10.6918C12.6644 14.0881 14.7725 14.2204 14.7725 16.6272C14.7725 16.8436 14.8585 17.0512 15.0116 17.2043C15.1646 17.3574 15.3722 17.4433 15.5887 17.4433C15.8051 17.4433 16.0127 17.3574 16.1658 17.2043C16.3188 17.0512 16.4048 16.8436 16.4048 16.6272V3.38755C16.4048 3.1711 16.3188 2.96351 16.1658 2.81045C16.0127 2.6574 15.8051 2.57141 15.5887 2.57141ZM9.0081 18.674C9.06216 18.7961 9.08489 18.9297 9.07424 19.0628C9.06359 19.1959 9.01989 19.3242 8.94711 19.4362C8.87432 19.5481 8.77475 19.6401 8.65742 19.7038C8.54009 19.7675 8.40872 19.801 8.2752 19.8011C8.08046 19.8009 7.88996 19.7443 7.72682 19.6379C7.56369 19.5316 7.43494 19.3802 7.35623 19.202L5.0645 14.0881H6.90408L9.0081 18.674ZM14.7725 13.7616C13.6065 12.8632 12.1628 12.4012 10.6918 12.4558H4.9788C4.54589 12.4558 4.13072 12.2838 3.8246 11.9777C3.51849 11.6716 3.34652 11.2564 3.34652 10.8235V9.19123C3.34652 8.75832 3.51849 8.34314 3.8246 8.03703C4.13072 7.73092 4.54589 7.55895 4.9788 7.55895H10.6918C12.1623 7.61469 13.6059 7.15416 14.7725 6.2572V13.7616ZM22.1996 14.457C22.1518 14.5529 22.0854 14.6385 22.0045 14.7088C21.9235 14.7791 21.8295 14.8328 21.7278 14.8668C21.626 14.9007 21.5186 14.9143 21.4117 14.9067C21.3047 14.8992 21.2003 14.8706 21.1044 14.8226L19.4721 14.0065C19.2784 13.9097 19.131 13.74 19.0624 13.5346C18.9939 13.3292 19.0097 13.1049 19.1064 12.9112C19.2032 12.7175 19.373 12.5701 19.5784 12.5016C19.7838 12.433 20.008 12.4488 20.2017 12.5456L21.834 13.3617C22.0267 13.4584 22.1734 13.6274 22.2419 13.8319C22.3104 14.0364 22.2952 14.2596 22.1996 14.4529V14.457ZM19.1064 7.1117C19.0585 7.01579 19.0299 6.91136 19.0223 6.80439C19.0148 6.69743 19.0283 6.59002 19.0623 6.4883C19.0962 6.38658 19.1499 6.29256 19.2202 6.21159C19.2905 6.13063 19.3761 6.06431 19.4721 6.01644L21.1044 5.2003C21.2981 5.10354 21.5223 5.08771 21.7277 5.15628C21.9331 5.22484 22.1029 5.3722 22.1996 5.56593C22.2964 5.75965 22.3122 5.98388 22.2436 6.18928C22.1751 6.39469 22.0277 6.56444 21.834 6.66119L20.2017 7.47733C20.1058 7.52529 20.0014 7.55387 19.8944 7.56144C19.7874 7.56902 19.68 7.55544 19.5783 7.52149C19.4766 7.48753 19.3826 7.43386 19.3016 7.36355C19.2206 7.29324 19.1543 7.20766 19.1064 7.1117ZM19.0167 10.0074C19.0167 9.79092 19.1027 9.58333 19.2557 9.43027C19.4088 9.27722 19.6164 9.19123 19.8328 9.19123H21.4651C21.6816 9.19123 21.8891 9.27722 22.0422 9.43027C22.1953 9.58333 22.2812 9.79092 22.2812 10.0074C22.2812 10.2238 22.1953 10.4314 22.0422 10.5845C21.8891 10.7375 21.6816 10.8235 21.4651 10.8235H19.8328C19.6164 10.8235 19.4088 10.7375 19.2557 10.5845C19.1027 10.4314 19.0167 10.2238 19.0167 10.0074Z" fill="#1C1C1C"/>
</g>
</svg>
