<svg width="24" height="24" viewBox="0 0 24 24" fill="none" xmlns="http://www.w3.org/2000/svg">
<mask id="mask0_163_254" style="mask-type:alpha" maskUnits="userSpaceOnUse" x="0" y="0" width="24" height="24">
<rect width="24" height="24" fill="#D9D9D9"/>
</mask>
<g mask="url(#mask0_163_254)">
<path d="M20.0842 13.4213L18.5415 7.56254C18.0893 5.84617 17.1066 4.33859 15.7495 3.27944C14.3925 2.22029 12.7389 1.67035 11.0518 1.71704C9.36461 1.76373 7.74065 2.40437 6.43802 3.53713C5.13539 4.66989 4.22886 6.22975 3.86251 7.96878L2.66815 13.6381C2.53622 14.2646 2.53927 14.9143 2.67707 15.5393C2.81487 16.1644 3.08391 16.7487 3.46432 17.2493C3.84472 17.7499 4.32679 18.1539 4.87492 18.4315C5.42305 18.7092 6.02325 18.8533 6.63121 18.8532H7.53571C7.72206 19.822 8.21995 20.6929 8.94502 21.3184C9.67009 21.944 10.5777 22.2857 11.5142 22.2857C12.4507 22.2857 13.3583 21.944 14.0834 21.3184C14.8084 20.6929 15.3063 19.822 15.4927 18.8532H16.1731C16.7989 18.8533 17.4163 18.7006 17.977 18.4071C18.5377 18.1136 19.0265 17.6872 19.4053 17.1613C19.784 16.6354 20.0424 16.0242 20.1604 15.3754C20.2783 14.7266 20.2517 14.0578 20.0842 13.4213ZM11.5142 20.5673C11.0122 20.5651 10.5231 20.3993 10.1139 20.0925C9.70458 19.7856 9.39511 19.3528 9.22779 18.8532H13.8006C13.6333 19.3528 13.3238 19.7856 12.9145 20.0925C12.5053 20.3993 12.0162 20.5651 11.5142 20.5673ZM18.112 16.1236C17.8857 16.4404 17.5926 16.6971 17.2559 16.8734C16.9192 17.0497 16.5481 17.1407 16.1723 17.1392H6.63121C6.26648 17.1391 5.90641 17.0526 5.57759 16.886C5.24878 16.7194 4.9596 16.477 4.73141 16.1766C4.50322 15.8763 4.34184 15.5257 4.25919 15.1507C4.17653 14.7757 4.17471 14.3859 4.25386 14.0101L5.44741 8.33988C5.73512 6.97393 6.44715 5.7487 7.47031 4.85895C8.49347 3.96921 9.76904 3.46602 11.0942 3.42937C12.4194 3.39272 13.7182 3.82473 14.7841 4.65671C15.85 5.48868 16.6218 6.67288 16.9769 8.02106L18.5196 13.8798C18.6215 14.2615 18.6378 14.6631 18.567 15.0525C18.4963 15.442 18.3405 15.8087 18.112 16.1236Z" fill="#1C1C1C"/>
</g>
</svg>
