<svg width="24" height="24" viewBox="0 0 24 24" fill="none" xmlns="http://www.w3.org/2000/svg">
<mask id="mask0_163_258" style="mask-type:alpha" maskUnits="userSpaceOnUse" x="0" y="0" width="24" height="24">
<rect width="24" height="24" fill="#D9D9D9"/>
</mask>
<g mask="url(#mask0_163_258)">
<path d="M12.0001 1.71429C9.96575 1.71429 7.97711 2.31754 6.28564 3.44775C4.59416 4.57796 3.27581 6.18437 2.49731 8.06384C1.71881 9.9433 1.51512 12.0114 1.912 14.0066C2.30887 16.0019 3.28849 17.8346 4.72698 19.2731C6.16546 20.7116 7.9982 21.6912 9.99343 22.0881C11.9887 22.485 14.0568 22.2813 15.9362 21.5028C17.8157 20.7243 19.4221 19.4059 20.5523 17.7144C21.6825 16.023 22.2858 14.0343 22.2858 12C22.2828 9.27297 21.1982 6.65847 19.2699 4.73017C17.3416 2.80186 14.7271 1.71724 12.0001 1.71429ZM12.0001 20.5714C10.3048 20.5714 8.64761 20.0687 7.23804 19.1269C5.82848 18.185 4.72986 16.8464 4.08111 15.2802C3.43236 13.7139 3.26261 11.9905 3.59334 10.3278C3.92407 8.66511 4.74042 7.13783 5.93916 5.93909C7.13789 4.74036 8.66518 3.92401 10.3279 3.59328C11.9906 3.26255 13.714 3.43229 15.2802 4.08104C16.8464 4.72979 18.1851 5.82841 19.127 7.23798C20.0688 8.64754 20.5715 10.3047 20.5715 12C20.569 14.2725 19.6651 16.4513 18.0582 18.0582C16.4513 19.6651 14.2726 20.5689 12.0001 20.5714Z" fill="#1C1C1C"/>
<path d="M12.6149 6.054C12.1206 5.96394 11.6126 5.98362 11.1267 6.11164C10.6409 6.23966 10.1891 6.47289 9.8034 6.79484C9.41767 7.11678 9.10742 7.51957 8.89459 7.97469C8.68176 8.42981 8.57155 8.92615 8.57178 9.42858C8.57178 9.6559 8.66208 9.87392 8.82283 10.0347C8.98357 10.1954 9.20159 10.2857 9.42892 10.2857C9.65625 10.2857 9.87427 10.1954 10.035 10.0347C10.1958 9.87392 10.2861 9.6559 10.2861 9.42858C10.2858 9.17638 10.3413 8.92725 10.4484 8.69894C10.5555 8.47063 10.7117 8.26877 10.9058 8.10774C11.0999 7.94672 11.3271 7.83051 11.5713 7.76739C11.8154 7.70427 12.0705 7.69579 12.3183 7.74258C12.657 7.80831 12.9683 7.97348 13.2126 8.217C13.4568 8.46051 13.623 8.77132 13.6898 9.10972C13.7572 9.46492 13.7107 9.83236 13.5567 10.1595C13.4028 10.4866 13.1493 10.7567 12.8326 10.9311C12.3082 11.235 11.8749 11.6739 11.5777 12.2021C11.2806 12.7304 11.1305 13.3286 11.1432 13.9346V14.5714C11.1432 14.7988 11.2335 15.0168 11.3943 15.1775C11.555 15.3383 11.773 15.4286 12.0003 15.4286C12.2277 15.4286 12.4457 15.3383 12.6064 15.1775C12.7672 15.0168 12.8575 14.7988 12.8575 14.5714V13.9346C12.8467 13.6363 12.9148 13.3405 13.0547 13.0768C13.1946 12.8132 13.4016 12.5911 13.6546 12.4329C14.2756 12.0918 14.7757 11.5667 15.0861 10.9298C15.3965 10.2929 15.502 9.57545 15.388 8.87617C15.274 8.17688 14.9462 7.53008 14.4496 7.02471C13.9531 6.51935 13.3121 6.18023 12.6149 6.054Z" fill="#1C1C1C"/>
<path d="M12.8574 17.1432C12.8574 16.6698 12.4736 16.2861 12.0002 16.2861C11.5268 16.2861 11.1431 16.6698 11.1431 17.1432C11.1431 17.6166 11.5268 18.0004 12.0002 18.0004C12.4736 18.0004 12.8574 17.6166 12.8574 17.1432Z" fill="#1C1C1C"/>
</g>
</svg>
