<svg width="24" height="24" viewBox="0 0 24 24" fill="none" xmlns="http://www.w3.org/2000/svg">
<mask id="mask0_6_876" style="mask-type:alpha" maskUnits="userSpaceOnUse" x="0" y="0" width="24" height="24">
<rect width="24" height="24" fill="#D9D9D9"/>
</mask>
<g mask="url(#mask0_6_876)">
<path d="M11.6665 5.33346C12.587 5.33346 13.3332 4.58726 13.3332 3.66679C13.3332 2.74631 12.587 2.00012 11.6665 2.00012C10.7461 2.00012 9.99988 2.74631 9.99988 3.66679C9.99988 4.58726 10.7461 5.33346 11.6665 5.33346Z" fill="#1C1C1C"/>
<path d="M11.6664 13.6668C12.5869 13.6668 13.3331 12.9206 13.3331 12.0001C13.3331 11.0796 12.5869 10.3334 11.6664 10.3334C10.7459 10.3334 9.99976 11.0796 9.99976 12.0001C9.99976 12.9206 10.7459 13.6668 11.6664 13.6668Z" fill="#1C1C1C"/>
<path d="M11.6664 22.0003C12.5869 22.0003 13.3331 21.2541 13.3331 20.3336C13.3331 19.4131 12.5869 18.6669 11.6664 18.6669C10.7459 18.6669 9.99976 19.4131 9.99976 20.3336C9.99976 21.2541 10.7459 22.0003 11.6664 22.0003Z" fill="#1C1C1C"/>
</g>
</svg>
