<svg width="48" height="48" viewBox="0 0 48 48" fill="none" xmlns="http://www.w3.org/2000/svg">
<circle cx="24" cy="24" r="24" fill="#F3F3F3"/>
<path d="M32.9992 18H26.9995C26.4465 18 25.9995 18.447 25.9995 18.9999C25.9995 19.5529 26.4465 19.9999 26.9995 19.9999H32.5852L26.0235 26.5616C25.4595 27.1255 24.5416 27.1255 23.9766 26.5616L21.4378 24.0227C20.0938 22.6788 17.9069 22.6788 16.563 24.0227L12.2932 28.2925C11.9023 28.6834 11.9023 29.3154 12.2932 29.7064C12.4882 29.9014 12.7442 29.9994 13.0002 29.9994C13.2562 29.9994 13.5122 29.9014 13.7072 29.7064L17.9769 25.4366C18.5239 24.8896 19.4769 24.8896 20.0238 25.4366L22.5627 27.9755C23.9066 29.3194 26.0935 29.3194 27.4374 27.9755L34.0001 21.4138V26.9995C34.0001 27.5525 34.4471 27.9995 35.0001 27.9995C35.553 27.9995 36 27.5525 36 26.9995V20.9998C36 19.3459 34.6531 18 32.9992 18Z" fill="#882EFD" stroke="#882EFD" stroke-width="0.5"/>
</svg>
