<svg width="48" height="48" viewBox="0 0 48 48" fill="none" xmlns="http://www.w3.org/2000/svg">
<circle cx="24" cy="24" r="24" fill="#F3F3F3"/>
<path fill-rule="evenodd" clip-rule="evenodd" d="M21.01 12H31.9322C35.2816 12 38 14.7184 38 18.0679V25.3493C38 28.6987 35.2816 31.4171 31.9322 31.4171H21.01C17.6606 31.4171 14.9422 28.6987 14.9422 25.3493V18.0679C14.9422 14.7184 17.6606 12 21.01 12ZM31.9322 14.4271H21.01C19.4203 14.4271 18.0853 15.4465 17.5878 16.8543H35.3544C34.8447 15.4465 33.5098 14.4271 31.9322 14.4271ZM21.01 28.99H31.9322C33.9346 28.99 35.5729 27.3517 35.5729 25.3493V19.2814H17.3693V25.3493C17.3693 27.3517 19.0077 28.99 21.01 28.99ZM28.2915 36.2714C28.9589 36.2714 29.505 35.7253 29.505 35.0578V35.0457C29.505 34.3782 28.9589 33.8321 28.2915 33.8321H16.0919C14.0895 33.8321 12.4512 32.1938 12.4512 30.1914V21.2717V18.9086C12.4522 18.8883 12.4527 18.8678 12.4527 18.8472C12.4527 18.1699 11.9036 17.6208 11.2263 17.6208C10.5491 17.6208 10 18.1699 10 18.8472C10 18.9303 10.0083 19.0115 10.024 19.09L10.024 21.2838V30.2036C10.024 33.553 12.7424 36.2714 16.0919 36.2714H28.2915Z" fill="#882EFD"/>
</svg>
