<svg width="48" height="48" viewBox="0 0 48 48" fill="none" xmlns="http://www.w3.org/2000/svg">
<circle cx="24" cy="24" r="24" fill="#F3F3F3"/>
<path d="M24 10C21.2311 10 18.5243 10.8211 16.222 12.3594C13.9197 13.8978 12.1253 16.0843 11.0657 18.6424C10.0061 21.2006 9.72882 24.0155 10.269 26.7313C10.8092 29.447 12.1426 31.9416 14.1005 33.8995C16.0584 35.8574 18.553 37.1908 21.2687 37.731C23.9845 38.2712 26.7994 37.9939 29.3576 36.9343C31.9157 35.8747 34.1022 34.0803 35.6406 31.778C37.1789 29.4757 38 26.7689 38 24C37.996 20.2882 36.5197 16.7296 33.8951 14.1049C31.2704 11.4803 27.7118 10.004 24 10ZM27.759 18.1667H20.241C21.2312 16.2116 22.4972 14.409 24 12.814C25.5034 14.4086 26.7694 16.2113 27.759 18.1667ZM28.6923 20.5C29.0509 21.6325 29.2381 22.8122 29.2477 24C29.2381 25.1878 29.0509 26.3675 28.6923 27.5H19.3053C18.9468 26.3675 18.7596 25.1878 18.75 24C18.7596 22.8122 18.9468 21.6325 19.3053 20.5H28.6923ZM20.9667 12.7487C19.6223 14.3934 18.5127 16.2168 17.6697 18.1667H13.9118C15.4587 15.5025 17.9936 13.5557 20.9667 12.7487ZM12.3333 24C12.3332 22.8127 12.5146 21.6324 12.8712 20.5H16.8833C16.5809 21.6423 16.4241 22.8183 16.4167 24C16.4241 25.1817 16.5809 26.3577 16.8833 27.5H12.8712C12.5146 26.3676 12.3332 25.1873 12.3333 24ZM13.9118 29.8333H17.6697C18.5127 31.7832 19.6223 33.6066 20.9667 35.2513C17.9936 34.4443 15.4587 32.4975 13.9118 29.8333ZM20.241 29.8333H27.759C26.7688 31.7883 25.5028 33.591 24 35.186C22.4966 33.5914 21.2306 31.7887 20.241 29.8333ZM27.0392 35.2513C28.3815 33.6062 29.4891 31.7828 30.3303 29.8333H34.0882C32.5427 32.4963 30.0101 34.4429 27.0392 35.2513ZM35.6667 24C35.6668 25.1873 35.4854 26.3676 35.1288 27.5H31.1167C31.4191 26.3577 31.5759 25.1817 31.5833 24C31.5759 22.8183 31.4191 21.6423 31.1167 20.5H35.1265C35.4839 21.6323 35.666 22.8126 35.6667 24ZM30.3303 18.1667C29.4891 16.2171 28.3815 14.3938 27.0392 12.7487C30.0101 13.5571 32.5427 15.5037 34.0882 18.1667H30.3303Z" fill="#882EFD"/>
</svg>
