<svg width="48" height="48" viewBox="0 0 48 48" fill="none" xmlns="http://www.w3.org/2000/svg">
<circle cx="24" cy="24" r="24" fill="#F3F3F3"/>
<g clip-path="url(#clip0_6_797)">
<path d="M14.2569 23.1429C14.7111 18.0857 18.8991 14.2619 24.0002 14.2571C26.491 14.2667 28.9196 15.2429 30.7267 16.9429H27.9682C27.3419 16.9429 26.8352 17.4476 26.8352 18.0714C26.8352 18.6952 27.3419 19.2 27.9682 19.2H32.0797C33.1697 19.2 34.0589 18.3143 34.0637 17.2238V13.1286C34.0637 12.5048 33.557 12 32.9307 12C32.3044 12 31.7976 12.5048 31.7976 13.1286V14.8762C29.4455 12.8714 26.4575 11.8571 23.3548 12.019C20.1469 12.1857 17.1971 13.5857 15.0458 15.9619C13.3199 17.8762 12.2394 20.3381 12.0052 22.9C11.9765 23.2 12.0673 23.4952 12.2634 23.7286C12.4594 23.9619 12.7319 24.1048 13.0331 24.1333C13.0665 24.1381 13.1 24.1381 13.1335 24.1381C13.1382 24.1381 13.143 24.1381 13.1478 24.1381C13.7215 24.1381 14.1948 23.7143 14.2569 23.1429Z" fill="#882EFD"/>
<path d="M34.9674 23.8666C34.9387 23.8618 34.91 23.8618 34.8814 23.8618H34.8718H34.8575C34.2838 23.8618 33.8057 24.2856 33.7483 24.8571C33.5236 27.4475 32.2997 29.7951 30.3014 31.4666C28.303 33.138 25.774 33.9332 23.1732 33.7094C20.9597 33.519 18.8801 32.5809 17.2785 31.0571H20.0322C20.6585 31.0571 21.1653 30.5523 21.1653 29.9285C21.1653 29.3047 20.6585 28.7999 20.0322 28.7999H15.9208C14.8308 28.7999 13.9415 29.6856 13.9415 30.7761V34.8713C13.9415 35.4951 14.4483 35.9999 15.0746 35.9999C15.7009 35.9999 16.2076 35.4951 16.2076 34.8713V33.1237C18.3924 34.9904 21.1318 35.9999 24.0051 35.9999C24.2202 35.9999 24.4306 35.9951 24.6457 35.9809C27.8536 35.8142 30.8034 34.4142 32.9547 32.0332C34.6806 30.1237 35.761 27.6571 35.9953 25.0951C36.0527 24.4761 35.5937 23.9237 34.9674 23.8666Z" fill="#882EFD"/>
</g>
<defs>
<clipPath id="clip0_6_797">
<rect width="24" height="24" fill="white" transform="translate(12 12)"/>
</clipPath>
</defs>
</svg>
